<?xml version="1.0" encoding="UTF-8" standalone="no"?>
<!-- Created with Inkscape (http://www.inkscape.org/) -->

<svg
   xmlns:dc="http://purl.org/dc/elements/1.1/"
   xmlns:cc="http://creativecommons.org/ns#"
   xmlns:rdf="http://www.w3.org/1999/02/22-rdf-syntax-ns#"
   xmlns:svg="http://www.w3.org/2000/svg"
   xmlns="http://www.w3.org/2000/svg"
   xmlns:sodipodi="http://sodipodi.sourceforge.net/DTD/sodipodi-0.dtd"
   xmlns:inkscape="http://www.inkscape.org/namespaces/inkscape"
   id="svg3039"
   version="1.1"
   inkscape:version="0.48.4 r9939"
   width="1142"
   height="212.00001"
   xml:space="preserve"
   sodipodi:docname="firman.tex"><metadata
     id="metadata3045"><rdf:RDF><cc:Work
         rdf:about=""><dc:format>image/svg+xml</dc:format><dc:type
           rdf:resource="http://purl.org/dc/dcmitype/StillImage" /><dc:title></dc:title></cc:Work></rdf:RDF></metadata><defs
     id="defs3043" /><sodipodi:namedview
     pagecolor="#ffffff"
     bordercolor="#666666"
     borderopacity="1"
     objecttolerance="10"
     gridtolerance="10"
     guidetolerance="10"
     inkscape:pageopacity="0"
     inkscape:pageshadow="2"
     inkscape:window-width="1280"
     inkscape:window-height="751"
     id="namedview3041"
     showgrid="false"
     inkscape:zoom="0.7244439"
     inkscape:cx="823.20777"
     inkscape:cy="-37.08855"
     inkscape:window-x="0"
     inkscape:window-y="0"
     inkscape:window-maximized="1"
     inkscape:current-layer="g3047" /><g
     id="g3047"
     inkscape:groupmode="layer"
     inkscape:label="firma"
     transform="matrix(1.25,0,0,-1.25,0,212.00001)"><g
       id="g3049" /><path
       style="fill:none;stroke:#ffff00;stroke-width:4;stroke-linecap:round;stroke-linejoin:miter;stroke-miterlimit:4;stroke-opacity:1;stroke-dasharray:none"
       d="M 210.85138,21.509074 C 194.54306,7.6304752 167.73663,34.641017 167.07006,49.462088 166.76117,75.620989 233.18594,86.839147 251.91737,60.504503 261.2327,47.408016 215.45438,53.127137 201.13279,65.030281 179.06753,83.36945 185.99967,97.740339 212.20005,91.409707 296.68372,70.996453 43.87845,76.22324 20.670853,128.08338 -3.4791216,182.04937 334.04247,77.044532 298.80087,48.614057 234.32102,-3.4038045 73.616269,90.848706 79.716318,140.911 c 5.072825,41.63201 115.146412,16.36996 148.895052,7.69311 16.78188,-4.31465 24.12623,8.57061 41.59589,11.63207 12.36031,2.16607 11.41257,-14.03038 11.41257,-14.03038"
       id="path3055"
       inkscape:connector-curvature="0"
       transform="matrix(0.8,0,0,-0.8,0,169.60001)"
       sodipodi:nodetypes="ccssssssssc" /><path
       style="fill:none;stroke:#000000;stroke-width:1px;stroke-linecap:butt;stroke-linejoin:miter;stroke-opacity:1"
       d="m 281.83974,106.82865 c -9.99635,-4.76295 9.6696,-4.13806 -0.73205,-10.004703"
       id="path3827"
       inkscape:connector-curvature="0"
       transform="matrix(0.8,0,0,-0.8,0,169.60001)"
       sodipodi:nodetypes="cc" /><path
       style="fill:none;stroke:#ff0000;stroke-width:4;stroke-linecap:round;stroke-linejoin:miter;stroke-miterlimit:4;stroke-opacity:1;stroke-dasharray:none"
       d="m 329.42308,146.35942 c -46.59541,-82.893797 -68.90756,46.53426 21.4735,-22.44957"
       id="path3829"
       inkscape:connector-curvature="0"
       transform="matrix(0.8,0,0,-0.8,0,169.60001)"
       sodipodi:nodetypes="cc" /><path
       style="fill:none;stroke:#00ff00;stroke-width:4;stroke-linecap:round;stroke-linejoin:miter;stroke-miterlimit:4;stroke-opacity:1;stroke-dasharray:none"
       d="M 431.36301,160.55428 C 461.85477,122.92959 494.56637,72.433789 512.37669,16.584189 500.67658,70.39277 489.17911,161.0044 517.23251,197.8225 501.88079,92.972027 429.22641,95.723716 383.38257,103.65643 472.49617,86.27259 503.7766,77.790613 560.75128,77.790613"
       id="path3831"
       inkscape:connector-curvature="0"
       transform="matrix(0.8,0,0,-0.8,0,169.60001)"
       sodipodi:nodetypes="ccccc" /><path
       style="fill:none;stroke:#0000ff;stroke-width:4;stroke-linecap:round;stroke-linejoin:miter;stroke-miterlimit:4;stroke-opacity:1;stroke-dasharray:none"
       d="M 698.86496,36.795742 C 676.31739,71.450741 674.29674,108.73745 678.85555,148.55557 748.22501,69.022922 611.81152,-20.244163 561.72735,44.116254 534.2121,79.474601 746.38889,75.414111 810.13675,40.211981 728.54355,45.869116 583.54304,95.04722 583.68889,109.0248 c 0.21693,20.78874 131.28119,-4.12498 184.47692,-14.15299"
       id="path3833"
       inkscape:connector-curvature="0"
       transform="matrix(0.8,0,0,-0.8,0,169.60001)"
       sodipodi:nodetypes="ccscsc" /><path
       style="fill:none;stroke:#00ff00;stroke-width:4;stroke-linecap:butt;stroke-linejoin:miter;stroke-miterlimit:4;stroke-opacity:1;stroke-dasharray:none"
       d="m 741.94841,159.54599 c -128.62813,23.56177 -27.76573,-64.108551 8.36595,0.13278 71.04659,-25.48021 134.80356,-15.55279 163.69216,-6.9509"
       id="path3835"
       inkscape:connector-curvature="0"
       transform="matrix(0.8,0,0,-0.8,0,169.60001)"
       sodipodi:nodetypes="ccc" /><path
       sodipodi:type="arc"
       style="opacity:0.51242239;fill:none;stroke:#00ff00;stroke-width:4;stroke-linecap:round;stroke-linejoin:miter;stroke-miterlimit:4;stroke-opacity:1;stroke-dasharray:none"
       id="path3837"
       sodipodi:cx="281.35172"
       sodipodi:cy="101.9483"
       sodipodi:rx="4.6363249"
       sodipodi:ry="5.1243591"
       d="m 285.98109,101.66787 a 4.6363249,5.1243591 0 1 1 -1.15566,-3.113435 l -3.47371,3.393865 z"
       transform="matrix(0.8,0,0,-0.8,0,169.60001)"
       sodipodi:start="6.2284327"
       sodipodi:end="11.842485" /><path
       sodipodi:type="arc"
       style="opacity:0.51242239;fill:none;stroke:#00ff00;stroke-width:4;stroke-linecap:round;stroke-linejoin:miter;stroke-miterlimit:4;stroke-opacity:1;stroke-dasharray:none"
       id="path3839"
       sodipodi:cx="536.34955"
       sodipodi:cy="163.44061"
       sodipodi:rx="5.3683763"
       sodipodi:ry="5.6123934"
       d="m 541.70988,163.13347 a 5.3683763,5.6123934 0 0 0 -1.33814,-3.40995 l -4.02219,3.71709 z"
       transform="matrix(0.8,0,0,-0.8,0,169.60001)"
       sodipodi:start="6.2284327"
       sodipodi:end="5.5592997" /><path
       sodipodi:type="arc"
       style="opacity:0.51242239;fill:none;stroke:#00ff00;stroke-width:4;stroke-linecap:round;stroke-linejoin:miter;stroke-miterlimit:4;stroke-opacity:1;stroke-dasharray:none"
       id="path3841"
       sodipodi:cx="866.26068"
       sodipodi:cy="87.5513"
       sodipodi:rx="5.85641"
       sodipodi:ry="5.3683763"
       d="m 872.10832,87.257514 a 5.85641,5.3683763 0 1 1 -1.45979,-3.261694 l -4.38785,3.55548 z"
       transform="matrix(0.8,0,0,-0.8,0,169.60001)"
       sodipodi:start="6.2284327"
       sodipodi:end="11.842485" /><path
       style="fill:none;stroke:#fff600;stroke-width:4;stroke-linecap:round;stroke-linejoin:miter;stroke-miterlimit:4;stroke-opacity:1;stroke-dasharray:none"
       d="m 962.89145,157.82822 c -8.17593,-64.742062 -98.15408,4.65097 -13.17692,5.85641 61.41277,0.87116 37.88378,-42.73745 176.18037,1.4641"
       id="path3843"
       inkscape:connector-curvature="0"
       transform="matrix(0.8,0,0,-0.8,0,169.60001)"
       sodipodi:nodetypes="csc" /></g></svg>